<?xml version="1.0" encoding="UTF-8" standalone="no"?>
<!-- Created with Inkscape (http://www.inkscape.org/) -->

<svg
   width="7.3012695mm"
   height="1.6682014mm"
   viewBox="0 0 7.3012695 1.6682014"
   version="1.1"
   id="svg5"
   inkscape:version="1.2.2 (b0a84865, 2022-12-01)"
   sodipodi:docname="Logo.svg"
   xmlns:inkscape="http://www.inkscape.org/namespaces/inkscape"
   xmlns:sodipodi="http://sodipodi.sourceforge.net/DTD/sodipodi-0.dtd"
   xmlns:xlink="http://www.w3.org/1999/xlink"
   xmlns="http://www.w3.org/2000/svg"
   xmlns:svg="http://www.w3.org/2000/svg">
  <sodipodi:namedview
     id="namedview7"
     pagecolor="#505050"
     bordercolor="#ffffff"
     borderopacity="1"
     inkscape:showpageshadow="0"
     inkscape:pageopacity="0"
     inkscape:pagecheckerboard="1"
     inkscape:deskcolor="#505050"
     inkscape:document-units="mm"
     showgrid="false"
     inkscape:zoom="16"
     inkscape:cx="10.65625"
     inkscape:cy="3.4375"
     inkscape:window-width="1920"
     inkscape:window-height="1017"
     inkscape:window-x="-8"
     inkscape:window-y="-8"
     inkscape:window-maximized="1"
     inkscape:current-layer="svg5" />
  <defs
     id="defs2">
    <linearGradient
       inkscape:collect="always"
       id="linearGradient2781">
      <stop
         style="stop-color:#93a3ff;stop-opacity:1;"
         offset="0"
         id="stop2779" />
      <stop
         style="stop-color:#4f7efc;stop-opacity:1;"
         offset="1"
         id="stop2777" />
    </linearGradient>
    <linearGradient
       inkscape:collect="always"
       id="linearGradient1738">
      <stop
         style="stop-color:#4f7efc;stop-opacity:1;"
         offset="0"
         id="stop1734" />
      <stop
         style="stop-color:#93a3ff;stop-opacity:1;"
         offset="1"
         id="stop1736" />
    </linearGradient>
    <inkscape:path-effect
       effect="fillet_chamfer"
       id="path-effect40756"
       is_visible="true"
       lpeversion="1"
       nodesatellites_param="F,0,0,1,0,0.7904824,0,1 @ F,0,0,1,0,0,0,1 @ F,0,0,1,0,0,0,1 @ F,0,0,1,0,0,0,1"
       unit="px"
       method="auto"
       mode="F"
       radius="0"
       chamfer_steps="1"
       flexible="false"
       use_knot_distance="true"
       apply_no_radius="true"
       apply_with_radius="true"
       only_selected="false"
       hide_knots="false" />
    <inkscape:path-effect
       effect="fillet_chamfer"
       id="path-effect40752"
       is_visible="true"
       lpeversion="1"
       nodesatellites_param="F,0,0,1,0,0.7904824,0,1 @ F,0,0,1,0,0,0,1 @ F,0,0,1,0,0,0,1 @ F,0,0,1,0,0,0,1"
       unit="px"
       method="auto"
       mode="F"
       radius="0"
       chamfer_steps="1"
       flexible="false"
       use_knot_distance="true"
       apply_no_radius="true"
       apply_with_radius="true"
       only_selected="false"
       hide_knots="false" />
    <inkscape:path-effect
       effect="fillet_chamfer"
       id="path-effect40748"
       is_visible="true"
       lpeversion="1"
       nodesatellites_param="F,0,0,1,0,0.7904824,0,1 @ F,0,0,1,0,0,0,1 @ F,0,0,1,0,0,0,1 @ F,0,0,1,0,0,0,1"
       unit="px"
       method="auto"
       mode="F"
       radius="0"
       chamfer_steps="1"
       flexible="false"
       use_knot_distance="true"
       apply_no_radius="true"
       apply_with_radius="true"
       only_selected="false"
       hide_knots="false" />
    <inkscape:path-effect
       effect="fillet_chamfer"
       id="path-effect40744"
       is_visible="true"
       lpeversion="1"
       nodesatellites_param="F,0,0,1,0,0.7904824,0,1 @ F,0,0,1,0,0,0,1 @ F,0,0,1,0,0,0,1 @ F,0,0,1,0,0,0,1"
       unit="px"
       method="auto"
       mode="F"
       radius="0"
       chamfer_steps="1"
       flexible="false"
       use_knot_distance="true"
       apply_no_radius="true"
       apply_with_radius="true"
       only_selected="false"
       hide_knots="false" />
    <rect
       x="153.39517"
       y="135.55852"
       width="492.29147"
       height="267.54971"
       id="rect40734" />
    <rect
       x="153.39517"
       y="135.55852"
       width="492.29147"
       height="267.54971"
       id="rect40736" />
    <rect
       x="153.39517"
       y="135.55852"
       width="492.29147"
       height="267.54971"
       id="rect40738" />
    <rect
       x="153.39517"
       y="135.55852"
       width="492.29147"
       height="267.54971"
       id="rect40740" />
    <linearGradient
       inkscape:collect="always"
       xlink:href="#linearGradient2781"
       id="linearGradient2783"
       x1="155.79453"
       y1="157.48526"
       x2="253.61462"
       y2="157.48526"
       gradientUnits="userSpaceOnUse" />
    <linearGradient
       inkscape:collect="always"
       xlink:href="#linearGradient1738"
       id="linearGradient1662"
       gradientUnits="userSpaceOnUse"
       x1="49.578411"
       y1="40.401669"
       x2="51.15971"
       y2="40.401669" />
    <linearGradient
       inkscape:collect="always"
       xlink:href="#linearGradient1738"
       id="linearGradient1664"
       gradientUnits="userSpaceOnUse"
       x1="49.578411"
       y1="40.401669"
       x2="51.15971"
       y2="40.401669" />
  </defs>
  <path
     id="path40684"
     style="fill:url(#linearGradient1662);fill-opacity:1;stroke:none;stroke-width:0.264999;stroke-linecap:butt;stroke-linejoin:round;stroke-dasharray:none;stroke-opacity:1"
     d="m 51.159711,40.445119 h -0.790649 a 0.7904824,0.7904824 0 0 0 -0.79065,0.79065 h 0.79065 a 0.7904824,0.7904824 0 0 0 0.790649,-0.79065 z"
     transform="translate(-49.578413,-39.567567)" />
  <path
     id="path40686"
     style="fill:url(#linearGradient1664);fill-opacity:1;stroke:none;stroke-width:0.264999;stroke-linecap:butt;stroke-linejoin:round;stroke-dasharray:none;stroke-opacity:1"
     d="m 49.578412,39.567568 h 0.790649 a 0.7904824,0.7904824 0 0 1 0.79065,0.790649 h -0.79065 a 0.7904824,0.7904824 0 0 1 -0.790649,-0.790649 z"
     transform="translate(-49.578413,-39.567567)" />
  <g
     aria-label="hWeb"
     transform="matrix(0.05465269,0,0,0.05465269,-6.5594566,-7.7729919)"
     id="text40696"
     style="font-size:40px;line-height:1.25;font-family:Urbanist;-inkscape-font-specification:'Urbanist, @wght=400';font-variation-settings:'wght' 400;white-space:pre;shape-inside:url(#rect40736);display:inline;fill:url(#linearGradient2783)">
    <path
       d="m 174.11453,159.58526 v 12.64 h -4.88 v -11.36 q 0,-1.18 -0.58,-2.14 -0.58,-0.98 -1.56,-1.54 -0.96,-0.58 -2.14,-0.58 -1.18,0 -2.16,0.58 -0.96,0.56 -1.54,1.54 -0.56,0.96 -0.56,2.14 v 11.36 h -4.88 l -0.02,-30 h 4.88 l 0.02,11.78 q 1.02,-1.08 2.44,-1.7 1.42,-0.64 3.06,-0.64 2.18,0 3.98,1.08 1.8,1.06 2.86,2.86 1.08,1.78 1.08,3.98 z"
       style="font-weight:bold"
       id="path331" />
    <path
       d="m 183.27446,172.22526 -7.16,-28 h 5.04 l 4.88,19.14 4.88,-19.14 h 4.46 l 4.88,19.14 4.86,-19.14 h 5.04 l -7.12,28 h -5.54 l -4.36,-16.96 -4.3,16.96 z"
       style="font-weight:bold"
       id="path333" />
    <path
       d="m 219.59438,172.74526 q -2.76,0 -5.04,-1.42 -2.26,-1.42 -3.62,-3.82 -1.34,-2.4 -1.34,-5.3 0,-2.18 0.78,-4.08 0.78,-1.92 2.14,-3.36 1.38,-1.46 3.2,-2.28 1.82,-0.82 3.88,-0.82 2.34,0 4.28,1 1.96,0.98 3.32,2.7 1.36,1.72 1.98,3.92 0.62,2.2 0.28,4.6 h -14.62 q 0.28,1.12 0.92,2.02 0.64,0.88 1.62,1.42 0.98,0.52 2.22,0.54 1.28,0.02 2.32,-0.6 1.06,-0.64 1.76,-1.72 l 4.98,1.16 q -1.22,2.66 -3.64,4.36 -2.42,1.68 -5.42,1.68 z m -4.92,-12.52 h 9.84 q -0.22,-1.2 -0.94,-2.16 -0.7,-0.98 -1.74,-1.56 -1.04,-0.58 -2.24,-0.58 -1.2,0 -2.22,0.58 -1.02,0.56 -1.74,1.54 -0.7,0.96 -0.96,2.18 z"
       style="font-weight:bold"
       id="path335" />
    <path
       d="m 243.05433,151.66526 q 2.92,0 5.32,1.42 2.4,1.42 3.82,3.82 1.42,2.38 1.42,5.28 0,2.18 -0.82,4.1 -0.82,1.92 -2.28,3.38 -1.44,1.44 -3.36,2.26 -1.9,0.82 -4.1,0.82 -1.88,0 -3.34,-0.84 -1.44,-0.86 -2.42,-2.22 v 2.54 h -4.88 v -30 h 4.88 v 12.5 q 0.98,-1.36 2.42,-2.2 1.46,-0.86 3.34,-0.86 z m -0.06,16.36 q 1.56,0 2.82,-0.78 1.28,-0.8 2.04,-2.12 0.76,-1.32 0.76,-2.94 0,-1.6 -0.76,-2.92 -0.76,-1.34 -2.04,-2.12 -1.28,-0.78 -2.82,-0.78 -1.52,0 -2.72,0.8 -1.2,0.78 -1.88,2.12 -0.68,1.32 -0.68,2.9 0,1.62 0.68,2.96 0.68,1.32 1.88,2.1 1.2,0.78 2.72,0.78 z"
       style="font-weight:bold"
       id="path337" />
  </g>
</svg>
